<?xml version="1.0" encoding="utf-8"?>
<!-- Generator: Adobe Illustrator 16.0.4, SVG Export Plug-In . SVG Version: 6.00 Build 0)  -->
<!DOCTYPE svg PUBLIC "-//W3C//DTD SVG 1.1//EN" "http://www.w3.org/Graphics/SVG/1.1/DTD/svg11.dtd">
<svg version="1.1" id="Layer_1" xmlns="http://www.w3.org/2000/svg" xmlns:xlink="http://www.w3.org/1999/xlink" x="0px" y="0px"
	 width="16px" height="16px" viewBox="0 0 63.589 63.589" enable-background="new 0 0 63.589 63.589" xml:space="preserve">
<path id="path9_2_" fill="#231F20" d="M31.792,15.094c-9.204,0-16.693,7.489-16.693,16.696c0,9.205,7.489,16.696,16.693,16.696
	c9.205,0,16.693-7.491,16.693-16.696C48.485,22.583,40.997,15.094,31.792,15.094z M31.792,36.552c-2.63,0-4.762-2.132-4.762-4.762
	s2.132-4.763,4.762-4.763s4.763,2.133,4.763,4.763S34.422,36.552,31.792,36.552z M57.315,35.638c0.188-1.256,0.285-2.54,0.285-3.848
	c0-0.5-0.015-0.996-0.042-1.488c1.999-0.254,4.013-0.404,6.03-0.45c-0.12-2.004-0.426-3.959-0.9-5.846
	c-2.252-0.699-4.547-1.265-6.879-1.687c-0.65-1.648-1.466-3.211-2.424-4.673c1.564-1.283,3.217-2.444,4.94-3.492
	c-1.062-1.595-2.263-3.089-3.586-4.464c-2.294,0.545-4.563,1.209-6.798,1.965c-1.426-1.147-2.979-2.145-4.631-2.971
	c0.742-1.883,1.596-3.714,2.561-5.482c-1.676-0.827-3.434-1.512-5.26-2.036c-1.723,1.612-3.346,3.319-4.869,5.11
	c-1.288-0.198-2.607-0.301-3.951-0.301c-0.541,0-1.076,0.019-1.608,0.051C29.897,4.032,29.724,2.02,29.671,0
	c-1.947,0.128-3.848,0.431-5.685,0.893c-0.68,2.265-1.239,4.566-1.687,6.886c-1.695,0.672-3.304,1.518-4.801,2.517
	c-1.238-1.593-2.391-3.253-3.441-4.976c-1.637,1.099-3.165,2.348-4.566,3.724c0.554,2.29,1.24,4.548,2.035,6.761
	c-1.058,1.34-1.986,2.79-2.766,4.326c-1.873-0.76-3.718-1.586-5.509-2.506c-0.86,1.732-1.571,3.554-2.109,5.447
	c1.605,1.76,3.312,3.426,5.109,4.98c-0.177,1.22-0.27,2.468-0.27,3.738c0,0.535,0.019,1.064,0.05,1.592
	C4.034,33.642,2.019,33.774,0,33.795c0.126,2.026,0.438,4.001,0.925,5.907c2.256,0.706,4.557,1.273,6.899,1.681
	c0.649,1.618,1.456,3.154,2.402,4.592c-1.587,1.233-3.245,2.391-4.967,3.456c1.065,1.598,2.272,3.097,3.601,4.475
	c2.271-0.557,4.52-1.236,6.732-2.02c1.412,1.14,2.945,2.134,4.579,2.96c-0.78,1.866-1.658,3.686-2.628,5.447
	c1.729,0.868,3.547,1.582,5.438,2.126c1.746-1.616,3.407-3.321,4.979-5.097c1.25,0.185,2.529,0.283,3.832,0.283
	c0.515,0,1.027-0.017,1.533-0.048c0.262,2.003,0.416,4.018,0.457,6.031c1.982-0.122,3.916-0.425,5.785-0.894
	c0.714-2.263,1.292-4.565,1.723-6.896c1.674-0.663,3.263-1.497,4.744-2.479c1.254,1.583,2.415,3.238,3.471,4.955
	c1.549-1.038,3-2.206,4.338-3.49c-0.541-2.286-1.203-4.547-1.973-6.774c1.18-1.461,2.204-3.054,3.047-4.75
	c1.871,0.738,3.698,1.608,5.467,2.593c0.838-1.7,1.529-3.488,2.058-5.344C60.825,38.785,59.111,37.161,57.315,35.638z
	 M31.792,49.676c-9.861,0-17.884-8.023-17.884-17.886c0-9.861,8.022-17.886,17.884-17.886s17.885,8.024,17.885,17.886
	C49.677,41.652,41.653,49.676,31.792,49.676z"/>
</svg>
